# xmcd CD database file
#
# Track frame offsets:
#	150
#	17765
#	25355
#
# Disc length: 605 seconds
#
# Revision: 4
# Processed by: cddbd v1.5PL3 Copyright (c) Steve Scherf et al.
# Submitted via: CDex 1.50
#
DISCID=1b025b03
DTITLE=山崎まさよし - やわらかい月
DYEAR=2000
DGENRE=Blues
TTITLE0=やわらかい月 (Single Version)
TTITLE1=mud skiffle track VII
TTITLE2=ヌイチャイナ シンドローム
EXTD=YEAR: 2000
EXTT0=
EXTT1=
EXTT2=
PLAYORDER=
